<?xml version="1.0" encoding="utf-8" ?>
<svg xmlns="http://www.w3.org/2000/svg" xmlns:xlink="http://www.w3.org/1999/xlink" width="500" height="500">
	<path fill="#010001" transform="scale(0.488281 0.488281)" d="M708.88 484.7L709.207 485.645L707.75 486.755C708.771 487.042 709.053 487.192 710.039 486.753C710.968 486.34 711.494 486.41 712.49 486.536L681.5 505.532L680.795 505.25L708.88 484.7Z"/>
	<path fill="#4E4D4E" transform="scale(0.488281 0.488281)" d="M506.206 184.903L575.032 195.443L560.287 199.255L521.29 212.937L506.206 184.903Z"/>
	<path fill="#1F1F1F" transform="scale(0.488281 0.488281)" d="M630.509 527.25L631.698 527.147C645.948 541.012 659.704 556.248 670.291 573.123C687.452 600.478 695.868 631.529 700.087 663.25C700.606 667.15 699.709 669.65 697.722 672.969C686.847 665.532 676.04 658.003 664.529 651.554C649.393 643.073 632.762 636.265 616.435 630.461C580.327 618.215 541.212 612.302 503.106 614.016L630.509 527.25Z"/>
	<path fill="#4E4D4E" transform="scale(0.488281 0.488281)" d="M312.971 251.75L313.977 251.844L297.052 294.5L263.595 363.463L249.976 386.5L234.53 415.919L218.676 452.79L212.97 469.089C212.121 471.643 211.324 475.264 209.902 477.485C208.353 479.905 205.97 482.018 204.016 484.136L192.397 496.762C181.219 508.937 170.778 522.221 158.954 533.733C155.335 537.256 151.291 540.475 147.447 543.758C146.896 539.671 147.35 535.168 147.465 531.043C148.113 507.864 151.323 484.295 156.822 461.766C172.815 396.238 209.581 335.066 259.976 290.23C276.282 275.723 294.344 263.068 312.971 251.75Z"/>
	<path fill="#1F1F1F" transform="scale(0.488281 0.488281)" d="M349.679 57.9535C360.834 63.4192 371.472 71.0951 381.423 78.5097C431.213 115.609 471.367 166.218 499.004 221.709C485.28 227.578 472.188 234.486 459.052 241.542C422.588 261.125 388.04 283.98 355.949 310.123L285.483 377.332C310.334 331.286 333.41 284.6 348.422 234.295C358.348 201.036 364.575 166.154 362.869 131.339C361.634 106.148 356.193 82.2124 349.679 57.9535Z"/>
	<defs>
		<linearGradient id="gradient_0" gradientUnits="userSpaceOnUse" x1="1006.4927" y1="701.9126" x2="190.88525" y2="690.7785">
			<stop offset="0" stop-color="#282828"/>
			<stop offset="1" stop-color="#5C5C5C"/>
		</linearGradient>
	</defs>
	<path fill="url(#gradient_0)" transform="scale(0.488281 0.488281)" d="M824.032 425.75L825.19 425.681C827.093 428.778 828.079 432.484 829.155 435.936L833.537 450.744C839.64 474.457 844.084 498.795 845.367 523.298C846.239 539.934 845.656 556.475 844.423 573.072C850.776 575.153 857.111 578.082 863.174 580.899C866.164 582.289 869.175 583.828 872.282 584.933C872.674 585.072 874.07 585.697 874.483 585.672C876.902 585.523 880.419 583.896 882.884 583.311C888.729 581.922 894.728 580.825 900.681 580.025C930.4 576.032 960.848 577.555 989.946 584.867C997.341 586.726 1004.69 588.603 1011.65 591.759L991.501 596.691C980.658 599.768 969.659 604.081 959.548 609.075C933.2 622.09 909.589 638.969 885.509 655.628L843.061 683.429L822.423 695.473L809.535 702.241C808.615 702.724 806.114 703.732 805.551 704.43C803.666 706.772 802.187 711.137 800.73 713.897C797.261 720.469 793.555 726.98 789.458 733.182C771.65 760.139 751.446 785.782 727.481 807.556C683.1 847.878 626.166 874.654 567.718 886.89C553.288 889.912 538.811 892.448 524.078 893.382C509.763 894.289 495.577 894.812 481.231 894.116L459.338 892.4C457.716 892.222 451.954 890.922 450.862 891.295C449.002 891.929 446.514 894.07 444.804 895.165L432.552 902.489L393.245 922.9C362.115 937.477 329.526 949.43 295.943 956.966L267.25 962.861L242.943 966.99C248.854 964.05 254.218 959.94 259.5 956.004C274.818 944.587 288.732 932.048 301.404 917.753C313.602 903.239 325.091 888.146 330.024 869.5C331.22 864.979 331.787 860.543 332.198 855.899C332.204 855.829 332.328 854.418 332.326 854.416C332.198 854.214 330.477 853.384 330.16 853.207L322.095 848.605C312.35 842.553 302.738 835.996 293.706 828.913C271.621 811.594 250.646 792.92 231.601 772.275L209.606 746.343C202.515 737.619 194.72 728.315 189.053 718.612C204.482 712.258 221.049 706.852 237.45 703.785C239.099 703.477 253.147 700.688 254.186 701.074C254.738 701.278 264.046 713.606 265.356 715.212C277.099 729.608 290.16 742.901 304.049 755.227C316.692 766.449 330.031 778.305 344.068 787.722L372.93 805.106C379.387 809.33 385.134 814.735 391.516 819.125L423.257 839.599L413.704 815.956L438.242 821.896C464.905 827.324 493.878 830.339 521.047 827.86C597.971 820.842 664.062 787.041 713.364 727.302C755.876 675.79 779.412 611.994 783.403 545.494C784.903 520.502 783.738 495.883 781.782 470.959C781.764 470.727 781.728 470.494 781.743 470.261C781.834 468.788 783.955 467.448 785.044 466.454C798.848 453.853 812.021 440.064 824.032 425.75Z"/>
	<path fill="#1F1F1F" transform="scale(0.488281 0.488281)" d="M708.88 484.7C711.645 481.921 715.128 479.599 718.247 477.203L733.208 465.192L779.767 422.519C790.014 412.185 799.902 401.704 808.668 390.056C813.368 383.809 818.585 376.787 821.672 369.56C803.266 374.325 786.104 383.576 771.267 395.354C766.508 399.132 761.763 402.979 757.75 407.561L757.563 407C775.667 382.762 800.842 363.666 830.397 356.135C832.687 355.552 843.443 353.838 844.255 352.449L855.863 334.625L877.327 297.496C880.278 291.931 883.689 286.031 885.697 280.069C871.963 284.565 858.563 290.448 845.218 295.987C804.401 312.929 764.306 332.107 726.658 355.325L672.717 390.693C646.512 408.37 619.638 428.042 588.826 436.689C562.167 444.171 532.78 440.576 508.179 428.183L502.382 425.013C504.17 445.101 509.209 464.284 520.271 481.359C523.571 486.453 527.416 491.005 531 495.875C508.526 493.672 488.356 484.415 473.913 466.728L469.725 461.361C468.565 472.198 467.831 483.063 468.626 493.963C469.916 511.663 475.305 530.364 482.092 546.724C470.925 542.556 461.114 535.508 454.171 525.75C451.639 522.191 449.653 518.18 447.589 514.335C445.044 518.614 441.943 522.519 439.166 526.652C433.386 535.251 427.78 544.008 422.925 553.168C413.104 571.695 404.632 591.184 398.494 611.25C382.481 663.597 380.843 720.729 394.217 773.823C398.075 789.142 403.201 804.187 410.328 818.305C413.282 824.156 417.38 829.575 420.003 835.533C413.849 831.745 408.278 827.119 402.602 822.666C395.989 817.479 389.173 812.4 382.932 806.767C376.851 801.278 371.295 795.276 365.62 789.378C329.697 752.04 297.506 709.424 285.259 658.129C279.336 633.32 277.827 607.831 283.561 582.813L289.785 560.766C275.174 582.443 269.268 611.265 269.913 637.116C270.134 645.988 271.342 654.666 272.589 663.438C197.069 666.808 124.816 688.47 63.3606 733.341C54.8183 739.578 46.4491 746.12 38.608 753.223L26.5927 764.084C24.7742 765.731 23.0437 767.685 21.0883 769.146C25.9441 747.656 35.3102 726.156 46.1213 707.045C68.5106 667.468 98.7753 634.34 133.421 605.137L171.351 575.319L199.103 554.249C208.775 546.885 218.064 539.632 225.977 530.32C236.545 517.883 242.083 503.576 249.025 489.061L263.638 461.451C302.931 392.598 359.162 331.718 426.4 289.353C454.488 271.656 484.54 255.464 515.267 242.829C606.129 205.466 706.406 188.174 804.303 185.415C848.137 184.179 892.677 185.794 936.012 192.936C928.541 219.842 918.151 246.015 906.529 271.38C897.367 291.378 887.566 310.952 876.418 329.924L852.478 367.578L840.944 368.313C832.984 380.868 824.98 393.118 815.432 404.558C795.519 428.416 770.523 447.376 745.107 464.984C734.585 472.274 723.777 480.347 712.565 486.53L712.49 486.536C711.494 486.41 710.968 486.34 710.039 486.753C709.053 487.192 708.771 487.042 707.75 486.755L709.207 485.645L708.88 484.7ZM743.432 260.296C733.105 265.902 721.84 270.227 710.87 274.41C687.605 283.282 664.359 290.593 639.929 295.532C642.988 297.578 646.013 299.465 649.371 300.987C661.064 305.874 674.29 309.068 686.969 309.728C690.802 309.927 694.808 310.102 698.562 309.181L699.284 309.008C707.279 306.96 713.939 299.47 719.248 293.613C727.233 284.806 735.162 274.916 741.104 264.611L743.432 260.296Z"/>
</svg>
