<?xml version="1.0" encoding="utf-8" ?>
<svg xmlns="http://www.w3.org/2000/svg" xmlns:xlink="http://www.w3.org/1999/xlink" width="320" height="320">
	<path fill="#18181b" transform="matrix(0.3125 0 0 0.3125 0 -6.10352e-05)" d="M504.627 72.2528C534.421 72.0666 563.384 74.1689 592.722 79.671C694.823 98.8197 788.959 155.206 854.464 235.764C865.111 248.857 874.985 262.533 884.044 276.769C888.156 283.231 891.543 290.18 895.862 296.49C899.689 295.398 904.339 291.555 907.735 289.297C931.812 273.293 954.087 255.585 975.374 236.024C974.893 243.514 973.234 251.325 971.858 258.715C964.67 297.346 950.93 336.956 927.834 369.125L935.857 397.789C955.512 476.245 956.255 558.539 933.143 636.403C922.124 673.527 905.854 708.626 885.924 741.76C878.488 754.123 870.134 765.78 861.432 777.275C819.076 833.223 762.992 879.392 699.624 909.672C671.992 922.876 642.41 932.941 612.714 940.302L529.215 951.217C491.598 952.617 453.547 949.704 416.738 941.707C340.723 925.193 269.661 887.363 212.779 834.358C127.856 755.222 75.899 642.855 72.1216 526.75C68.3273 410.125 110.475 296.694 190.67 211.644C261.926 136.075 358.075 87.2803 461.265 74.9609C475.67 73.2412 490.139 72.6919 504.627 72.2528Z"/>
	<path fill="#4338ca" transform="matrix(0.3125 0 0 0.3125 0 -6.10352e-05)" d="M196.638 553.75C200.74 570.384 205.507 587.188 211.704 603.172C237.997 670.999 284.317 729.002 342.355 772.426C356.541 783.039 372.04 791.566 386.83 801.25L386.431 801.327C385.338 801.37 383.968 800.45 383.004 799.973L372.791 794.736L341.162 776.43C325.341 766.274 310.473 754.714 296.641 741.99C283.001 729.442 269.87 715.905 258.482 701.25C233.663 669.31 215.965 632.149 204.968 593.338C201.427 580.84 197.184 566.781 196.638 553.75Z"/>
	<path fill="#4338ca" transform="matrix(0.3125 0 0 0.3125 0 -6.10352e-05)" d="M382.807 483.222L392.542 483.255C385.714 484.953 380.221 486.871 374.11 490.359C373.348 490.793 371.566 492.154 370.775 492.292C369.264 492.556 365.915 491.577 364.248 491.332C361.756 490.966 359.256 490.982 356.744 491C351.579 494.098 346.843 500.832 343.293 505.609C336.526 504.514 331.251 499.602 324.992 497.507C324.074 497.2 323.219 497.16 322.37 497.628C320.99 498.39 319.907 500.085 319.043 501.355C315.632 506.368 314.138 511.203 312.838 517.048L294.531 511.318C290.311 510.36 286.2 510.408 281.901 510.408C283.433 519.09 285.726 528.024 289.456 536.04C292.237 542.017 295.87 547.493 299.463 553L299 553.433L295.123 552.283C277.901 546.65 264.202 538.476 251.389 525.736C285.375 494.193 338.032 484.829 382.807 483.222Z"/>
	<path fill="#4338ca" transform="matrix(0.3125 0 0 0.3125 0 -6.10352e-05)" d="M930.705 305.75L930.823 306.75L882.221 379.629L860.121 409.12L850.056 421.606C848.469 423.593 846.356 425.827 845.244 428.088C843.892 430.838 843.883 435.194 843.491 438.25L841.054 454.797L835.578 482.79C832.555 497.448 828.053 511.902 823.061 526C807.467 570.033 783.302 612.2 752.33 647.25C692.48 714.98 609.597 765.18 519.337 777.882C502.617 780.235 485.668 781.692 468.784 781.902C459.51 782.017 449.981 781.121 440.782 781.698C451.58 784.791 463.01 786.563 474.144 787.928C531.666 794.979 591.691 783.231 643.5 757.558C653.566 752.571 663.531 747.172 672.933 741.021C678.906 737.113 684.535 732.124 690.851 728.859C685.408 734.414 678.732 739.395 672.487 744.044C649.179 761.397 622.696 775.96 595.634 786.535L575.832 793.488C572.293 794.593 568.555 795.41 565.084 796.674C563.707 797.175 563.216 797.443 562.559 798.75C563.861 805.561 570.572 813.079 575.1 818.07C583.319 827.13 592.771 834.267 603.075 840.789C627.041 855.958 654.991 865.872 683.014 870.314C693.974 872.05 705.08 872.594 716.147 873.149C688.755 885.152 657.147 889.907 627.428 891.13C549.649 894.33 475.173 866.053 418.063 813.404C406.074 802.99 394.87 790.554 384.985 778.129L377.95 768.963C376.658 767.106 375.387 764.535 373.765 762.981C372.094 761.379 369.681 760.178 367.716 758.954L356.401 751.873C346.333 745.436 336.412 738.524 327.26 730.829C300.146 708.033 275.529 681.797 255.293 652.674C247.834 641.939 241.317 630.747 234.79 619.436C220.616 594.871 208.572 569.301 199.362 542.433C205.85 552.156 211.562 562.058 218.812 571.278C261.816 625.962 322.968 664.741 388.773 686.069C401.902 690.324 415.598 693.804 429.104 696.633C430.921 697.013 434.729 698.239 436.476 698.016C438.648 697.738 442.234 695.574 444.372 694.678C456.724 689.504 469.129 684.364 481.047 678.235C503.118 666.884 524.873 650.205 537.837 628.696C543.431 619.417 547.28 609.385 550.567 599.097C552.298 604.698 553.198 610.572 553.919 616.375C557.534 645.477 545.615 671.868 528.078 694.36L578.735 672.701C616.591 655.097 654.184 633.747 686.646 607.322C708.836 589.259 731.062 569.232 748.854 546.739C762.4 529.615 773.505 511.016 784.12 491.988C793.839 474.566 802.674 457.342 809.743 438.638L816.368 420.837C817.044 419.124 819.385 415.115 819.266 413.419C819.077 410.708 817.229 406.783 816.282 404.161C812.195 392.84 806.145 380.601 798.199 371.451C795.369 368.192 791.938 365.27 788.791 362.311C795.367 364.076 802.228 366.011 808.217 369.333C814.1 372.595 819.222 377.772 823.688 382.719C830 379.073 835.942 374.611 842.074 370.653L893.188 335.027L930.705 305.75Z"/>
	<path fill="#4338ca" transform="matrix(0.3125 0 0 0.3125 0 -6.10352e-05)" d="M596.604 97.25L596.668 97.3495C596.482 99.4536 594.303 102.121 593.25 103.958L587.589 114.755C566.917 157.457 565.996 206.638 578.044 252C581.127 263.609 585.301 274.869 589.221 286.207C578.288 283.462 565.944 283.359 554.75 283.242L554.75 283.671C605.464 289.813 654.543 306.78 698.089 333.417C707.332 339.072 716.598 344.763 724.922 351.73C724.279 351.751 722.596 350.577 721.94 350.212L711.994 345.02C702.603 340.505 692.623 336.794 682.739 333.508C650.275 322.717 615.636 317.446 581.484 317.483C583.813 319.135 587.609 319.93 590.327 320.959C594.721 322.621 599.217 324.583 603.219 327.047C613.969 333.666 623.524 342.183 632.418 351.08C641.633 360.297 650.405 369.884 658.125 380.407C668.837 395.006 677.765 411.026 685.709 427.271C688.879 433.753 693.407 440.984 695.062 447.973L681.467 429.021C639.856 378.84 583.474 342.512 517.522 336.56C525.516 340.539 533.638 344.506 540.927 349.701C570.455 370.744 586.561 404.668 601.109 436.726C598.741 435.005 596.639 431.586 594.562 429.392L583.047 418.371C542.199 381.827 485.648 364.214 431.303 367.162C435.638 369.001 440.048 370.447 444.33 372.474C474.499 386.752 498.805 406.254 518.36 433.406C531.893 453.765 540.235 474.731 545.09 498.658C537.508 492.775 530.043 486.845 521.866 481.779C486.694 459.988 447.527 452.914 406.746 455.108L411.393 472.174L375.007 470.159C336.005 469.893 296.328 477.787 262.474 497.732C258.087 500.317 253.564 502.929 249.512 506.014C245.76 508.87 242.01 512.911 237.814 515.017C233.145 517.361 227.855 518.706 222.75 519.665C210.318 521.999 196.208 520.852 183.721 519.28C162.282 516.581 141.251 511.591 121 504.018C111.601 500.502 102.24 496.501 93.8278 490.979C113.309 471.388 134.237 453.411 155.854 436.226C239.54 369.7 336.939 320.235 440.887 294.72L492.151 284.814L515.297 281.634C506.04 280.903 496.744 281.171 487.473 281.433C465.684 282.051 444.243 284.395 422.9 288.83C450.996 222.865 495.893 161.003 555.747 120.435C568.785 111.597 582.784 104.714 596.604 97.25Z"/>
	<path fill="#18181b" transform="matrix(0.3125 0 0 0.3125 0 -6.10352e-05)" d="M297.649 396.75L297.799 396.972C298.296 398.218 297.693 400.126 297.444 401.397C296.415 406.66 294.938 411.454 292.491 416.25C287.468 426.095 278.982 433.122 268.475 436.492C254.482 440.981 242.146 437.063 229.696 430.572L220.181 423.82C243.936 426.519 264.488 419.276 284.25 406.424C288.756 403.494 292.797 399.986 297.247 397.014L297.649 396.75Z"/>
</svg>
